<?xml version="1.0" encoding="UTF-8" standalone="no"?>
<!-- Created with Inkscape (http://www.inkscape.org/) -->

<svg
   width="210mm"
   height="297mm"
   viewBox="0 0 210 297"
   version="1.1"
   id="svg5"
   inkscape:version="1.2.2 (732a01da63, 2022-12-09)"
   sodipodi:docname="character_1.svg"
   xmlns:inkscape="http://www.inkscape.org/namespaces/inkscape"
   xmlns:sodipodi="http://sodipodi.sourceforge.net/DTD/sodipodi-0.dtd"
   xmlns="http://www.w3.org/2000/svg"
   xmlns:svg="http://www.w3.org/2000/svg">
  <sodipodi:namedview
     id="namedview7"
     pagecolor="#505050"
     bordercolor="#eeeeee"
     borderopacity="1"
     inkscape:showpageshadow="0"
     inkscape:pageopacity="0"
     inkscape:pagecheckerboard="0"
     inkscape:deskcolor="#505050"
     inkscape:document-units="mm"
     showgrid="false"
     inkscape:zoom="0.88821614"
     inkscape:cx="108.0818"
     inkscape:cy="409.81016"
     inkscape:window-width="1920"
     inkscape:window-height="1027"
     inkscape:window-x="-8"
     inkscape:window-y="-8"
     inkscape:window-maximized="1"
     inkscape:current-layer="layer1" />
  <defs
     id="defs2" />
  <g
     inkscape:label="Warstwa 1"
     inkscape:groupmode="layer"
     id="layer1">
    <g
       id="g1608">
      <ellipse
         style="fill:#ffcc00;fill-opacity:1;stroke:#000000;stroke-width:1.365;stroke-dasharray:none;stroke-opacity:1"
         id="path354"
         cx="99.545723"
         cy="79.391983"
         rx="29.488783"
         ry="30.120684" />
      <path
         style="fill:#ffcc00;fill-opacity:1;stroke:#000000;stroke-width:1.365;stroke-dasharray:none;stroke-opacity:1"
         id="path1333"
         d="m 96.097945,110.29053 c 0.264115,3.60208 0.0096,7.21525 -0.207457,10.8126 -0.298601,4.47227 -0.457147,8.95226 -0.761836,13.42408 -0.109215,1.51997 -0.238535,3.03836 -0.367573,4.55675 0,0 3.403021,1.75807 3.403021,1.75807 v 0 c 0.04382,-1.5526 0.103399,-3.10464 0.175781,-4.65618 0.192638,-4.49948 0.307139,-9.00302 0.614469,-13.49694 0.237497,-3.53336 0.51373,-7.06419 0.669004,-10.60209 0,0 -3.525409,-1.79629 -3.525409,-1.79629 z" />
      <path
         style="fill:#ffcc00;fill-opacity:1;stroke:#000000;stroke-width:1.365;stroke-dasharray:none;stroke-opacity:1"
         id="path1335"
         d="m 114.80646,109.04857 c 1.31897,2.15216 2.65497,4.28942 4.07015,6.38011 1.8719,2.68062 4.04975,5.13188 6.19035,7.59799 1.75229,1.9261 3.42926,3.91881 5.03726,5.96666 0.88823,1.14404 1.70046,2.34219 2.52266,3.53347 0.45064,0.61172 0.87193,1.24402 1.29376,1.87566 0,0 3.52264,1.53938 3.52264,1.53938 v 0 c -0.42736,-0.62983 -0.84194,-1.26864 -1.29357,-1.88161 -0.84047,-1.20315 -1.62932,-2.44214 -2.56301,-3.57825 -1.66849,-2.06469 -3.36374,-4.10916 -5.18075,-6.04587 -2.13895,-2.43183 -4.25904,-4.89296 -6.14385,-7.52968 -1.38575,-2.0325 -2.738,-4.08776 -3.87252,-6.27458 0,0 -3.58312,-1.58328 -3.58312,-1.58328 z" />
      <path
         style="fill:#ffcc00;fill-opacity:1;stroke:#000000;stroke-width:1.365;stroke-dasharray:none;stroke-opacity:1"
         id="path1337"
         d="m 134.50579,85.168083 c 2.70683,-0.133908 5.41125,0.06845 8.11249,0.216459 4.18006,0.222996 8.36247,0.397486 12.54408,0.588131 4.12756,0.161058 8.256,0.287936 12.38605,0.360371 2.46562,0.0141 4.93117,0.03298 7.39656,0.06906 0,0 -3.05008,-2.216295 -3.05008,-2.216295 v 0 c -2.42702,0.034 -4.85438,0.04346 -7.28149,0.009 -4.10133,-0.03358 -8.20344,-0.102139 -12.30007,-0.312515 -4.20778,-0.201496 -8.41892,-0.350065 -12.62124,-0.650523 -2.7747,-0.178551 -5.54878,-0.341003 -8.33036,-0.34802 0,0 3.14406,2.284296 3.14406,2.284296 z" />
      <path
         style="fill:#ffcc00;fill-opacity:1;stroke:#000000;stroke-width:1.365;stroke-dasharray:none;stroke-opacity:1"
         id="path1339"
         d="m 126.17148,56.802968 c 0.20538,-0.173938 0.40532,-0.354506 0.61614,-0.521814 1.07219,-0.850924 2.20268,-1.627663 3.29554,-2.451119 0.8493,-0.639932 1.68795,-1.293911 2.5371,-1.934045 2.25441,-1.615738 4.34412,-3.43888 6.4881,-5.19358 1.42744,-1.213342 2.83497,-2.449754 4.2546,-3.672251 1.17928,-0.92769 2.39675,-1.805587 3.6152,-2.681056 0.51482,-0.380293 1.02813,-0.76289 1.54954,-1.134114 0,0 -3.31444,-2.096713 -3.31444,-2.096713 v 0 c -0.49708,0.391127 -0.9927,0.783503 -1.49921,1.162536 -1.2007,0.90811 -2.42458,1.786767 -3.60026,2.726524 -1.40245,1.226358 -2.77693,2.483913 -4.17966,3.709876 -2.10376,1.781363 -4.17355,3.604829 -6.40963,5.222965 -2.17408,1.657262 -4.3736,3.277167 -6.66106,4.776128 0,0 3.30804,2.086663 3.30804,2.086663 z" />
      <path
         style="fill:#ffcc00;fill-opacity:1;stroke:#000000;stroke-width:1.365;stroke-dasharray:none;stroke-opacity:1"
         id="path1341"
         d="m 106.60135,48.47486 c 0.2694,-2.957952 0.56301,-5.914024 0.85026,-8.870434 0.17299,-1.942932 0.43234,-3.879375 0.53135,-5.828289 0.0171,-1.334842 0.10472,-2.66382 0.25161,-3.990418 0.11836,-1.063403 0.0602,-0.538542 0.17444,-1.574577 0,0 -3.39805,-1.776049 -3.39805,-1.776049 v 0 c -0.10169,1.036921 -0.0461,0.512345 -0.16731,1.57366 -0.15838,1.327569 -0.3224,2.658654 -0.29922,3.998099 -0.0569,1.973433 -0.15459,3.945521 -0.32586,5.912717 -0.25278,2.909476 -0.4694,5.836723 -1.09599,8.695381 0,0 3.47877,1.85991 3.47877,1.85991 z" />
      <path
         style="fill:#ffcc00;fill-opacity:1;stroke:#000000;stroke-width:1.365;stroke-dasharray:none;stroke-opacity:1"
         id="path1349"
         d="m 63.214373,75.235366 c -3.44589,-0.007 -6.868783,-0.420203 -10.287186,-0.811067 -6.557016,-0.865971 -13.130958,-1.578221 -19.724803,-2.091142 -2.691898,-0.164015 -5.392783,-0.465228 -8.091205,-0.277493 -0.181247,0.02082 -0.362497,0.04163 -0.543745,0.06244 0,0 3.172452,2.245061 3.172452,2.245061 v 0 c 0.168119,-0.02294 0.336241,-0.0459 0.50436,-0.06885 2.572564,-0.23086 5.160018,-0.0031 7.733947,0.08513 6.554571,0.398611 13.085432,1.073084 19.585761,2.010516 0.530243,0.07016 5.351454,0.712412 6.129717,0.800243 1.328434,0.149923 1.939726,0.163967 3.191111,0.2618 0.820615,0.06415 0.801612,0.06733 1.501157,0.148452 0,0 -3.171566,-2.365089 -3.171566,-2.365089 z" />
      <path
         style="fill:#ffcc00;fill-opacity:1;stroke:#000000;stroke-width:1.365;stroke-dasharray:none;stroke-opacity:1"
         id="path1351"
         d="m 70.200726,97.206482 c -4.172683,2.055911 -8.15815,4.459538 -12.167984,6.810958 -1.106245,0.61718 -2.205314,1.24741 -3.318735,1.85155 -2.580702,1.40029 -4.026348,2.1344 -6.666818,3.37899 -2.650034,1.24911 -5.345833,2.3895 -8.046585,3.52267 -2.513396,1.05541 -5.040436,2.0949 -7.486908,3.3006 -0.716567,0.37341 -0.372379,0.19087 -1.033109,0.5466 0,0 3.254601,2.12136 3.254601,2.12136 v 0 c 0.635592,-0.36382 0.305995,-0.17623 0.988999,-0.56241 2.331285,-1.27344 4.753236,-2.37581 7.165497,-3.48454 6.046283,-2.7781 12.062389,-5.6284 17.855335,-8.91187 4.14648,-2.31269 8.2598,-4.74981 12.725736,-6.407677 0,0 -3.270029,-2.166231 -3.270029,-2.166231 z" />
      <path
         style="fill:#ffcc00;fill-opacity:1;stroke:#000000;stroke-width:1.365;stroke-dasharray:none;stroke-opacity:1"
         id="path1353"
         d="m 67.198632,85.439583 c -0.301609,0.05064 -0.605749,0.08802 -0.904828,0.151929 -0.570397,0.121886 -1.135185,0.268692 -1.702265,0.405175 -3.730283,0.897803 -7.422498,1.908167 -11.111722,2.961092 -6.350759,1.850364 -12.700899,3.698854 -18.971114,5.808591 -1.65514,0.562065 -3.29714,1.160114 -4.931301,1.779979 0,0 3.081445,2.062769 3.081445,2.062769 v 0 c 1.55985,-0.671563 3.130645,-1.31635 4.726988,-1.897502 6.171428,-2.266254 12.444938,-4.241871 18.81071,-5.890818 2.975023,-0.811652 5.942809,-1.633241 8.95917,-2.280669 1.403542,-0.301254 2.809261,-0.57836 4.234669,-0.753427 0.326066,-0.04004 0.655429,-0.04587 0.983144,-0.0688 0,0 -3.174896,-2.278317 -3.174896,-2.278317 z" />
      <path
         style="fill:#ffcc00;fill-opacity:1;stroke:#000000;stroke-width:1.365;stroke-dasharray:none;stroke-opacity:1"
         id="path1359"
         d="m 49.456891,34.631935 c 1.831807,2.882145 2.779941,6.205123 3.8803,9.408907 0.985881,2.752323 1.972979,5.51198 3.257982,8.142501 0.554712,1.135548 1.010166,1.938625 1.611484,3.036393 1.060416,2.019709 2.359744,3.892602 3.646225,5.770644 0,0 3.516414,1.528322 3.516414,1.528322 v 0 c -1.356211,-1.884569 -2.720954,-3.766394 -3.832759,-5.811083 -0.890871,-1.558578 -1.754783,-3.122936 -2.509154,-4.753802 -0.719587,-1.555669 -1.095516,-2.502218 -1.706038,-4.13111 -0.286351,-0.763996 -0.554259,-1.534779 -0.831389,-2.302168 -1.029278,-3.131436 -1.885751,-6.358402 -3.444772,-9.280555 0,0 -3.588293,-1.608049 -3.588293,-1.608049 z" />
      <path
         style="fill:#ffcc00;fill-opacity:1;stroke:#000000;stroke-width:1.365;stroke-dasharray:none;stroke-opacity:1"
         id="path1361"
         d="m 70.319499,35.304245 c 1.670987,3.633485 3.089935,7.38225 4.508548,11.120272 0.88999,2.435506 1.754389,4.880102 2.609533,7.328001 0,0 3.176305,1.481671 3.176305,1.481671 v 0 c -0.924033,-2.462271 -1.843329,-4.926303 -2.747222,-7.39606 -1.33897,-3.63072 -2.622687,-7.281353 -3.978521,-10.905868 0,0 -3.568643,-1.628016 -3.568643,-1.628016 z" />
      <path
         style="fill:#ffcc00;fill-opacity:1;stroke:#000000;stroke-width:1.365;stroke-dasharray:none;stroke-opacity:1"
         id="path1365"
         d="m 76.175989,108.30008 c -2.574054,3.51924 -4.997789,7.14521 -7.446691,10.75216 -1.885537,2.83088 -3.942881,5.54036 -5.923487,8.30407 -0.634934,0.9204 -1.238686,1.86866 -1.937609,2.74294 -0.180245,0.27805 -0.463234,0.44398 -0.704264,0.65564 -0.336192,0.29523 -0.649435,0.62652 -0.978391,0.93084 -0.560481,0.59669 -1.142141,1.166 -1.758452,1.70377 -0.492789,0.41123 -1.056747,0.72347 -1.566779,1.11125 0,0 3.331664,2.10489 3.331664,2.10489 v 0 c 0.518187,-0.39142 1.083914,-0.71723 1.574729,-1.14418 0.601137,-0.55237 1.16461,-1.14119 1.735567,-1.72483 0.584001,-0.53733 1.222524,-1.02413 1.733076,-1.63294 0.672551,-0.90162 1.243454,-1.87972 1.85685,-2.82113 1.790659,-2.8794 3.717662,-5.66925 5.56884,-8.50969 2.434896,-3.61043 4.863372,-7.27948 7.881918,-10.43662 0,0 -3.366971,-2.03617 -3.366971,-2.03617 z" />
      <path
         style="fill:#ffcc00;fill-opacity:1;stroke:#000000;stroke-width:1.365;stroke-dasharray:none;stroke-opacity:1"
         id="path1367"
         d="m 82.78534,112.46037 c -0.474842,2.49617 -1.33712,4.89382 -2.129751,7.30121 -1.039424,3.08478 -2.093749,6.16689 -2.973983,9.30161 -0.620636,2.18037 -1.133266,4.38838 -1.659948,6.59252 -0.298106,1.16351 -0.611253,2.32321 -0.902198,3.48854 0,0 3.421536,1.84088 3.421536,1.84088 v 0 c 0.243398,-1.18445 0.53793,-2.35754 0.811655,-3.53522 0.500039,-2.2125 1.004739,-4.42434 1.586007,-6.61728 0.81947,-3.14939 1.803171,-6.25157 2.904774,-9.31378 0.826159,-2.3877 1.669997,-4.76892 2.401451,-7.18763 0,0 -3.459543,-1.87085 -3.459543,-1.87085 z" />
      <path
         style="fill:#ffcc00;fill-opacity:1;stroke:#000000;stroke-width:1.365;stroke-dasharray:none;stroke-opacity:1"
         id="path1371"
         d="m 125.86428,105.42159 c 4.15147,0.23359 8.29131,0.65594 12.42861,1.06564 4.36286,0.36531 8.67989,1.1218 13.03903,1.50895 2.17258,0.16459 1.12727,0.10351 3.13546,0.19131 0,0 -2.98162,-2.18292 -2.98162,-2.18292 v 0 c -1.94223,-0.0562 -0.92806,-0.0103 -3.04208,-0.14698 -0.62549,-0.0579 -1.25196,-0.10606 -1.87649,-0.17362 -1.10977,-0.12006 -2.72533,-0.35174 -3.83075,-0.482 -2.38484,-0.281 -4.77816,-0.48437 -7.16607,-0.73608 -4.27809,-0.46365 -8.5604,-0.88621 -12.83914,-1.34346 0,0 3.13305,2.29916 3.13305,2.29916 z" />
      <path
         style="fill:#ffcc00;fill-opacity:1;stroke:#000000;stroke-width:1.365;stroke-dasharray:none;stroke-opacity:1"
         id="path1373"
         d="m 134.08305,72.443237 c 3.27925,-1.801112 6.75333,-3.203684 10.1497,-4.759659 1.00758,-0.461602 2.00331,-0.948661 3.00497,-1.42299 4.78478,-2.298904 9.50373,-4.724817 14.07522,-7.423894 0.99078,-0.578466 1.96459,-1.184336 2.92915,-1.805169 0,0 -3.21401,-2.053361 -3.21401,-2.053361 v 0 c -0.90509,0.652982 -1.81974,1.292404 -2.76088,1.892976 -1.28021,0.823383 -1.87261,1.218145 -3.22506,2.024478 -3.41293,2.034803 -6.95902,3.834486 -10.54006,5.552349 -4.52208,2.02315 -9.07701,3.973553 -13.66093,5.852319 0,0 3.2419,2.142951 3.2419,2.142951 z" />
      <path
         style="fill:none;fill-opacity:1;stroke:#000000;stroke-width:1.365;stroke-dasharray:none;stroke-opacity:1"
         d="m 81.431185,80.866424 c 2.571189,2.302439 4.29603,6.725645 7.161563,8.636 0.413379,0.275587 2.983764,0.572201 3.580781,0.631902 3.051442,0.305144 6.049359,1.289105 9.057261,0 0.5203,-0.222983 0.97353,-0.578895 1.47445,-0.842537 0.83357,-0.438726 1.74931,-0.73315 2.52761,-1.263803 2.10155,-1.43288 3.89959,-3.535288 4.84458,-5.897758 0.32984,-0.82459 0.68367,-1.653823 0.84254,-2.52761 0.0628,-0.345395 -0.0577,-0.70689 0,-1.053171 0.0163,-0.09794 0.14042,-0.140422 0.21063,-0.210635"
         id="path1580" />
      <ellipse
         style="fill:#000000;fill-opacity:1;stroke:#000000;stroke-width:1.365;stroke-dasharray:none;stroke-opacity:1"
         id="path1586"
         cx="85.169945"
         cy="67.385834"
         rx="1.1058294"
         ry="1.0531708" />
      <ellipse
         style="fill:#000000;fill-opacity:1;stroke:#000000;stroke-width:1.365;stroke-dasharray:none;stroke-opacity:1"
         id="path1588"
         cx="108.9716"
         cy="66.964569"
         rx="1.3164636"
         ry="0.94785374" />
    </g>
  </g>
</svg>
